<?xml version="1.0" standalone="no"?>
<!DOCTYPE svg PUBLIC "-//W3C//DTD SVG 20010904//EN"
 "http://www.w3.org/TR/2001/REC-SVG-20010904/DTD/svg10.dtd">
<svg version="1.0" xmlns="http://www.w3.org/2000/svg"
 width="374.000000pt" height="374.000000pt" viewBox="0 0 374.000000 374.000000"
 preserveAspectRatio="xMidYMid meet">

<g transform="translate(0.000000,374.000000) scale(0.100000,-0.100000)"
fill="#000000" stroke="none">
<path d="M2615 3010 c-176 -3 -321 -7 -323 -8 -1 -1 -11 -17 -22 -34 -18 -30
-20 -51 -20 -203 0 -180 4 -195 46 -195 39 0 43 20 46 191 l3 164 390 3 c215
1 400 0 413 -3 l22 -5 0 -409 c0 -364 -2 -410 -16 -415 -20 -8 -778 -8 -798 0
-13 5 -16 26 -16 126 0 129 -8 158 -43 158 -42 0 -47 -16 -47 -157 0 -147 11
-186 56 -203 14 -6 99 -10 190 -10 l164 0 0 -246 0 -246 -32 7 c-72 16 -131
47 -303 160 -236 155 -258 168 -340 196 -69 24 -75 24 -445 24 -368 0 -376 0
-440 -23 -84 -31 -158 -76 -245 -152 -82 -72 -180 -122 -287 -149 -97 -24
-137 -48 -168 -103 -24 -41 -25 -51 -28 -258 -3 -134 0 -231 7 -256 14 -53 50
-84 144 -124 78 -33 79 -34 108 -96 50 -105 131 -157 244 -158 112 -1 193 48
250 150 l22 39 676 3 677 2 24 -48 c28 -55 82 -107 135 -130 49 -20 165 -19
216 2 49 21 98 67 131 123 25 44 33 48 113 57 50 5 86 28 119 76 20 31 22 44
22 189 0 144 -2 160 -24 208 -14 29 -44 73 -67 98 -61 66 -113 90 -251 120
l-28 5 0 265 0 265 140 0 c106 0 148 4 170 15 62 32 60 19 60 483 0 461 0 464
-57 492 -34 17 -149 19 -588 10z m175 -1256 c0 -238 -1 -255 -17 -252 -17 3
-18 24 -21 256 -2 247 -2 252 18 252 20 0 20 -6 20 -256z m-888 61 c94 -20
140 -42 280 -136 68 -46 152 -102 187 -126 103 -68 189 -98 411 -143 225 -45
294 -70 332 -121 54 -71 58 -89 58 -237 0 -163 -4 -172 -76 -179 l-49 -5 -13
46 c-23 77 -72 147 -126 180 -55 35 -143 46 -213 27 -88 -24 -179 -124 -190
-210 l-6 -41 -667 0 -668 0 -7 37 c-16 87 -72 157 -160 199 -124 59 -285 5
-347 -117 -15 -30 -30 -62 -32 -72 -5 -16 -13 -14 -76 18 l-70 35 0 226 c0
134 4 233 10 244 15 27 39 39 143 66 116 31 181 67 292 160 103 85 182 128
275 148 93 20 618 21 712 1z m-930 -796 c93 -47 123 -174 63 -261 -38 -54 -93
-82 -162 -82 -131 0 -219 150 -157 269 24 45 54 70 110 90 45 17 91 12 146
-16z m1876 7 c153 -80 128 -306 -38 -346 -149 -36 -275 116 -211 255 32 70 88
105 169 105 29 0 65 -6 80 -14z"/>
<path d="M1160 1756 c-70 -20 -120 -49 -205 -121 -44 -36 -110 -87 -148 -111
-40 -27 -69 -54 -72 -67 -13 -62 -9 -82 24 -119 29 -32 30 -32 135 -36 86 -4
111 -1 131 12 29 19 32 38 9 60 -12 12 -37 16 -102 16 -132 0 -142 19 -44 86
31 22 86 63 122 93 36 30 88 64 115 77 57 26 172 47 237 42 l43 -3 2 -147 2
-148 -79 0 c-68 0 -81 -3 -90 -19 -14 -27 -13 -37 6 -55 14 -14 80 -16 584
-16 414 0 576 3 595 12 42 19 46 88 7 131 -30 33 -396 270 -457 296 l-60 26
-355 2 c-263 1 -367 -2 -400 -11z m770 -92 c25 -8 133 -72 240 -144 l195 -130
-432 0 -433 0 0 151 0 150 193 -6 c120 -4 209 -12 237 -21z"/>
<path d="M1460 1243 c-16 -6 -40 -32 -40 -44 0 -4 7 -15 16 -23 12 -12 36 -16
99 -16 73 0 86 3 95 19 13 26 3 50 -27 62 -26 10 -118 11 -143 2z"/>
<path d="M846 980 c-87 -27 -121 -137 -61 -202 53 -57 131 -61 183 -8 38 38
47 86 26 138 -24 62 -85 91 -148 72z m59 -96 c19 -20 16 -43 -7 -58 -21 -13
-51 2 -56 26 -3 16 23 48 38 48 5 0 16 -7 25 -16z"/>
<path d="M2735 979 c-83 -23 -119 -114 -75 -187 43 -70 136 -78 197 -17 29 29
33 40 33 83 0 72 -34 111 -110 127 -8 2 -29 -1 -45 -6z m52 -87 c11 -7 16 -26
14 -49 -2 -18 -40 -26 -56 -13 -37 31 2 88 42 62z"/>
<path d="M1351 2790 c-88 -24 -183 -74 -268 -142 -67 -53 -77 -77 -41 -102 25
-18 44 -10 99 39 52 46 118 83 202 112 92 32 247 36 347 9 77 -21 177 -73 241
-127 57 -48 95 -52 105 -12 6 23 1 33 -41 70 -62 57 -163 116 -245 144 -95 32
-296 37 -399 9z"/>
<path d="M2633 2780 c-23 -9 -23 -10 -23 -248 0 -249 2 -262 45 -262 42 0 48
14 49 103 l1 85 73 4 c116 8 166 56 166 161 0 75 -22 119 -72 143 -40 19 -206
29 -239 14z m198 -97 c19 -19 23 -91 6 -117 -13 -20 -26 -25 -72 -28 l-55 -3
0 84 0 83 55 -4 c31 -3 60 -9 66 -15z"/>
<path d="M1395 2556 c-62 -20 -122 -53 -165 -93 -41 -36 -49 -60 -28 -81 20
-20 45 -14 91 21 77 59 141 81 237 81 72 0 94 -4 145 -27 33 -16 77 -41 97
-57 47 -38 85 -40 94 -4 5 20 0 32 -22 55 -38 40 -115 83 -183 103 -65 19
-209 20 -266 2z"/>
<path d="M1434 2316 c-57 -26 -84 -57 -77 -86 8 -32 39 -33 101 -4 68 33 104
32 155 -2 21 -14 48 -24 59 -22 29 4 40 40 21 68 -23 32 -110 70 -163 70 -26
0 -66 -10 -96 -24z"/>
</g>
</svg>
